<?xml version="1.0" standalone="no"?>
<svg xmlns:xlink="http://www.w3.org/1999/xlink" id="wave" style="transform:rotate(0deg); transition: 0.3s" viewBox="0 0 1440 180" version="1.1" xmlns="http://www.w3.org/2000/svg"><defs><linearGradient id="sw-gradient-0" x1="0" x2="0" y1="1" y2="0"><stop stop-color="rgba(255, 255, 255, 1)" offset="0%"/><stop stop-color="rgba(255, 255, 255, 1)" offset="100%"/></linearGradient></defs><path style="transform:translate(0, 0px); opacity:1" fill="url(#sw-gradient-0)" d="M0,90L40,87C80,84,160,78,240,78C320,78,400,84,480,81C560,78,640,66,720,69C800,72,880,90,960,87C1040,84,1120,60,1200,42C1280,24,1360,12,1440,21C1520,30,1600,60,1680,69C1760,78,1840,66,1920,75C2000,84,2080,114,2160,105C2240,96,2320,48,2400,33C2480,18,2560,36,2640,54C2720,72,2800,90,2880,84C2960,78,3040,48,3120,54C3200,60,3280,102,3360,99C3440,96,3520,48,3600,27C3680,6,3760,12,3840,18C3920,24,4000,30,4080,51C4160,72,4240,108,4320,111C4400,114,4480,84,4560,81C4640,78,4720,102,4800,105C4880,108,4960,90,5040,90C5120,90,5200,108,5280,123C5360,138,5440,150,5520,153C5600,156,5680,150,5720,147L5760,144L5760,180L5720,180C5680,180,5600,180,5520,180C5440,180,5360,180,5280,180C5200,180,5120,180,5040,180C4960,180,4880,180,4800,180C4720,180,4640,180,4560,180C4480,180,4400,180,4320,180C4240,180,4160,180,4080,180C4000,180,3920,180,3840,180C3760,180,3680,180,3600,180C3520,180,3440,180,3360,180C3280,180,3200,180,3120,180C3040,180,2960,180,2880,180C2800,180,2720,180,2640,180C2560,180,2480,180,2400,180C2320,180,2240,180,2160,180C2080,180,2000,180,1920,180C1840,180,1760,180,1680,180C1600,180,1520,180,1440,180C1360,180,1280,180,1200,180C1120,180,1040,180,960,180C880,180,800,180,720,180C640,180,560,180,480,180C400,180,320,180,240,180C160,180,80,180,40,180L0,180Z"/></svg>